<?xml version="1.0" encoding="UTF-8"?>
<svg id="Layer_2" data-name="Layer 2" xmlns="http://www.w3.org/2000/svg" viewBox="0 0 437.63 437.63">
  <defs>
    <style>.cls-1 {
  fill: #524f7a;
  stroke-miterlimit: 10;
}

.cls-1, .cls-2 {
  stroke: #524f7a;
}

.cls-2 {
  fill: #f8f5f5;
  stroke-linejoin: round;
  stroke-width: 20px;
}

.cls-3 {
  fill: none;
}

.cls-4 {
  fill: #e7ebbc;
}

</style>
  </defs>
  <g id="Layer_1-2" data-name="Layer 1">
    <g>
      <rect class="cls-3" width="437.63" height="437.63"></rect>
      <circle class="cls-4" cx="215.78" cy="203.74" r="171.93"></circle>
      <path class="cls-2" d="m408.77,247.07c0,97.82-85.05,177.12-189.96,177.12S28.86,344.89,28.86,247.07c0-1.65.03-3.29.08-4.94h379.76c.05,1.64.08,3.28.08,4.94Z"></path>
      <path class="cls-1" d="m276.27,196.92h-135.05c-3.61,0-6.54,3.06-6.54,6.82s2.93,6.82,6.54,6.82h135.05c3.61,0,6.55-3.06,6.55-6.82s-2.94-6.82-6.55-6.82Zm0-45.01h-135.05c-3.61,0-6.54,3.06-6.54,6.82s2.93,6.82,6.54,6.82h135.05c3.61,0,6.55-3.06,6.55-6.82s-2.94-6.82-6.55-6.82Zm0-45.01h-135.05c-3.61,0-6.54,3.06-6.54,6.82s2.93,6.82,6.54,6.82h135.05c3.61,0,6.55-3.06,6.55-6.82s-2.94-6.82-6.55-6.82Zm65.47-47.65c-4.06-4.06-9.68-6.59-15.85-6.59h-.03c-.7-4.92-3.01-9.36-6.38-12.72-4.06-4.06-9.67-6.6-15.85-6.6h-21.72v-13.69c0-3.88-3.15-7.03-7.03-7.03s-7.04,3.15-7.04,7.03v13.69h-30.94v-13.69c0-3.88-3.15-7.03-7.03-7.03s-7.04,3.15-7.04,7.03v13.69h-30.94v-13.69c0-3.88-3.15-7.03-7.03-7.03s-7.04,3.15-7.04,7.03v13.69h-30.94v-13.69c0-3.88-3.15-7.03-7.03-7.03s-7.04,3.15-7.04,7.03v13.69h-21.09c-6.18,0-11.8,2.53-15.86,6.59-4.06,4.06-6.59,9.68-6.59,15.86v170.93h12.78V55.79c0-2.65,1.1-5.07,2.84-6.82,1.75-1.74,4.17-2.84,6.82-2.84h21.09v13.69c0,3.88,3.15,7.03,7.04,7.03s7.03-3.15,7.03-7.03v-13.69h30.94v13.69c0,3.88,3.15,7.03,7.04,7.03s7.03-3.15,7.03-7.03v-13.69h30.94v13.69c0,3.88,3.15,7.03,7.04,7.03s7.03-3.15,7.03-7.03v-13.69h30.94v13.69c0,3.88,3.15,7.03,7.04,7.03s7.03-3.15,7.03-7.03v-13.69h21.72c2.64,0,5.06,1.1,6.82,2.85,1.75,1.76,2.85,4.18,2.85,6.82v170.93h12.78V65.45c2.49.05,4.86,1.07,6.62,2.84,1.76,1.75,2.85,4.17,2.85,6.82v151.61h12.78V75.11c0-6.17-2.53-11.79-6.6-15.86Zm-65.47,137.67h-135.05c-3.61,0-6.54,3.06-6.54,6.82s2.93,6.82,6.54,6.82h135.05c3.61,0,6.55-3.06,6.55-6.82s-2.94-6.82-6.55-6.82Zm0-45.01h-135.05c-3.61,0-6.54,3.06-6.54,6.82s2.93,6.82,6.54,6.82h135.05c3.61,0,6.55-3.06,6.55-6.82s-2.94-6.82-6.55-6.82Zm0-45.01h-135.05c-3.61,0-6.54,3.06-6.54,6.82s2.93,6.82,6.54,6.82h135.05c3.61,0,6.55-3.06,6.55-6.82s-2.94-6.82-6.55-6.82Zm0,90.01h-135.05c-3.61,0-6.54,3.06-6.54,6.82s2.93,6.82,6.54,6.82h135.05c3.61,0,6.55-3.06,6.55-6.82s-2.94-6.82-6.55-6.82Zm0-45.01h-135.05c-3.61,0-6.54,3.06-6.54,6.82s2.93,6.82,6.54,6.82h135.05c3.61,0,6.55-3.06,6.55-6.82s-2.94-6.82-6.55-6.82Zm0-45.01h-135.05c-3.61,0-6.54,3.06-6.54,6.82s2.93,6.82,6.54,6.82h135.05c3.61,0,6.55-3.06,6.55-6.82s-2.94-6.82-6.55-6.82Z"></path>
    </g>
  </g>
</svg>